<svg width="12" height="12" viewBox="0 0 12 12" fill="none" xmlns="http://www.w3.org/2000/svg">
<path d="M11.8986 4.53894H8.91487V9.77038H11.8986V4.53894Z" fill="#86B817"/>
<path d="M5.94928 0C4.22841 0 2.829 1.39941 2.829 3.12028H3.55406C3.55416 1.79944 4.62844 0.725062 5.94928 0.725062C7.27012 0.725062 8.34441 1.79944 8.34441 3.12028H9.06947C9.06956 1.39941 7.67016 0 5.94928 0ZM11.8986 3.12028V4.539H0V3.12028H11.8986ZM11.8986 9.77044V12H0V9.77044H11.8986Z" fill="black"/>
<path d="M2.98369 4.53894H0V9.77038H2.98369V4.53894Z" fill="#E53238"/>
<path d="M5.90813 4.53894H2.98369V9.77038H5.90813V4.53894Z" fill="#0064D2"/>
<path d="M8.91488 4.53894H5.90822V9.77038H8.91488V4.53894Z" fill="#F5AF02"/>
</svg>
