<svg width="12" height="12" viewBox="0 0 12 12" fill="none" xmlns="http://www.w3.org/2000/svg">
<path fill-rule="evenodd" clip-rule="evenodd" d="M3.96692 6.72937C5.57995 6.72937 7.44448 6.1423 8.79771 5.38968C9.0249 5.2633 9.23733 5.14738 9.45332 5.0166L10.0925 4.61839C10.0398 4.92782 9.53306 6.35812 9.42386 6.64689C8.89189 8.05247 7.56763 11.1692 5.90879 11.1692C5.24222 11.1692 4.59648 10.8606 4.17254 10.561C3.65027 10.192 3.40997 9.93791 2.97034 9.43954C2.66847 9.09733 2.24892 8.44487 2.03766 8.04931C1.80914 7.62139 1.47274 6.88164 1.46577 6.30195C1.63372 6.31431 2.31722 6.72937 3.96692 6.72937ZM4.63299 5.11726C4.73995 4.95902 5.01129 4.66079 5.16273 4.52703C5.2253 4.47185 5.28546 4.41003 5.35408 4.35327C5.8717 3.92593 6.59544 3.40341 7.32798 3.33819C8.44953 3.2382 8.20557 4.42571 7.78644 5.02598C7.82693 4.70693 7.94767 4.28988 7.49236 4.02144C7.16684 3.82951 6.67095 3.91946 6.32394 4.02816C5.63355 4.24449 5.00026 4.74983 4.63299 5.11726ZM1.98356 4.39319C1.98356 4.05646 2.04554 3.73143 2.14661 3.43619C2.29797 2.994 2.67876 2.32394 3.20725 2.3066C4.13421 2.27606 4.33078 4.27527 3.49303 5.33043C3.32989 5.53597 3.1051 5.75014 2.75526 5.75014C2.1842 5.75014 1.98356 4.89662 1.98356 4.39319ZM5.7357 2.62234C5.83942 2.41323 6.25755 2.03866 6.447 1.89428C7.06195 1.42545 7.87905 1.14838 8.38796 1.89768C8.53043 2.10745 8.74236 2.62856 8.75738 2.94396C8.42596 2.48517 8.0265 2.20338 7.41619 2.1594C6.95342 2.12612 6.49139 2.24619 6.0916 2.4348C5.97476 2.4899 5.83851 2.58582 5.7357 2.62234ZM4.12558 0.469865C4.15844 0.570021 4.21752 0.675985 4.25793 0.782612C4.36929 1.07619 4.49467 1.57108 4.51558 1.87445C4.44944 1.81047 4.39219 1.668 4.28207 1.5549C3.40366 0.652917 2.45048 1.24265 1.74873 1.99244L1.40536 2.37929C1.30056 2.51106 1.1882 2.65909 1.09104 2.81161C-0.207087 4.85015 -0.156137 7.53443 1.3657 9.51721C1.80905 10.0947 2.24635 10.4954 2.91002 10.9273C4.16034 11.741 6.0014 12.0743 7.67533 11.5708C11.6651 10.3706 13.1353 5.51282 10.5274 2.31423C10.0927 1.7811 9.60634 1.35674 8.93296 0.953881C7.90419 0.338344 6.58549 0.0574608 5.33591 0.203337C4.6588 0.282333 4.57906 0.37917 4.12558 0.469865Z" fill="#00A046"/>
<path fill-rule="evenodd" clip-rule="evenodd" d="M4.31489 10.4514C4.4182 10.2431 4.71618 9.93986 4.87591 9.81697C5.1119 9.63549 5.30756 9.5053 5.61342 9.35884C6.39259 8.98568 7.25698 8.91224 8.14129 8.95125C8.14876 9.0202 7.90347 9.38564 7.85601 9.46032C7.64914 9.7856 7.41506 10.0946 7.14745 10.3623C7.00415 10.5056 6.89238 10.5983 6.71264 10.7246C6.03562 11.2 5.23396 10.9885 4.5537 10.6116C4.47023 10.5654 4.36468 10.5154 4.31489 10.4514ZM3.96688 6.7294C2.31718 6.7294 1.63368 6.31434 1.46573 6.30197C1.4727 6.88166 1.8091 7.62142 2.03762 8.04935C2.24889 8.44491 2.66843 9.09737 2.9703 9.43958C3.40992 9.93795 3.65023 10.192 4.1725 10.561C4.59644 10.8606 5.24218 11.1693 5.90875 11.1693C7.56757 11.1693 8.89183 8.0525 9.42381 6.64692C9.53301 6.35815 10.0398 4.92784 10.0925 4.61841L9.45327 5.01662C9.23727 5.1474 9.02485 5.26332 8.79765 5.3897C7.44443 6.14232 5.5799 6.7294 3.96688 6.7294Z" fill="#221F1F"/>
<path fill-rule="evenodd" clip-rule="evenodd" d="M4.12555 0.469914C4.57903 0.379218 4.65877 0.282382 5.33588 0.203386C6.58546 0.0575091 7.90416 0.338393 8.93293 0.95393C9.60631 1.35679 10.0926 1.78115 10.5274 2.31429C13.1352 5.51288 11.6651 10.3706 7.6753 11.5708C6.00137 12.0744 4.16032 11.741 2.90999 10.9273C2.24632 10.4955 1.80902 10.0948 1.36567 9.51727C-0.156166 7.53449 -0.207116 4.85021 1.09101 2.81166C1.18818 2.65915 1.30053 2.51111 1.40533 2.37934L1.7487 1.99249C2.45045 1.2427 3.40363 0.652966 4.28205 1.55495C4.39216 1.66805 4.44941 1.81052 4.51555 1.8745C4.49464 1.57113 4.36926 1.07624 4.2579 0.782662C4.21749 0.676034 4.15841 0.57007 4.12555 0.469914ZM0 5.98668C0 7.12159 0.30221 8.06398 0.769215 8.91875C0.857422 9.08031 0.952433 9.23066 1.05549 9.37936C1.209 9.601 1.52656 9.99648 1.73028 10.1984C2.81282 11.2713 4.3013 11.9784 5.89217 11.9784C6.89389 11.9784 7.63747 11.8205 8.51447 11.4305C8.94505 11.239 9.29613 11.0057 9.65991 10.7337C9.86844 10.5777 10.1651 10.3108 10.3449 10.124C10.3843 10.083 10.39 10.0641 10.4273 10.0239C10.4595 9.98917 10.4874 9.96876 10.5181 9.932C10.5538 9.88927 10.5629 9.87499 10.6018 9.83317C10.6614 9.7692 10.7066 9.69983 10.7624 9.62855C11.9567 8.1029 12.3445 5.89126 11.6703 4.02598C11.5441 3.67663 11.3899 3.3151 11.2005 3.0021C11.1041 2.84278 11.0197 2.6935 10.9094 2.54621C10.852 2.46962 10.8117 2.41071 10.7531 2.33744C10.6939 2.26342 10.6472 2.19845 10.5844 2.12435C10.3876 1.89201 10.1643 1.67709 9.93806 1.47603C9.57992 1.15781 9.3533 1.016 8.95965 0.778098L8.4646 0.526174C6.72768 -0.250011 4.68615 -0.16753 3.05313 0.774115C2.37486 1.16511 2.12775 1.40019 1.58913 1.93258L1.41073 2.13596C1.35795 2.20426 1.30144 2.26483 1.24709 2.33744C1.0418 2.61185 0.813111 2.95372 0.658106 3.25884C0.24205 4.078 0 5.04604 0 5.98668Z" fill="#221F1F"/>
<path fill-rule="evenodd" clip-rule="evenodd" d="M4.31491 10.4514C4.3647 10.5154 4.47025 10.5653 4.55373 10.6116C5.23398 10.9885 6.03564 11.2 6.71266 10.7246C6.89239 10.5983 7.00416 10.5056 7.14747 10.3623C7.41507 10.0946 7.64915 9.78558 7.85602 9.46031C7.90348 9.38562 8.14877 9.02018 8.1413 8.95123C7.257 8.91223 6.39261 8.98567 5.61344 9.35882C5.30759 9.50528 5.11192 9.63548 4.87593 9.81695C4.7162 9.93984 4.41822 10.243 4.31491 10.4514Z" fill="#00A046"/>
<path fill-rule="evenodd" clip-rule="evenodd" d="M3.05395 3.57997C3.31326 3.06243 3.88699 3.42264 3.62054 4.17966C3.39998 4.8064 2.83372 4.7357 2.91189 3.9815C3.03611 3.95254 3.10864 3.94391 3.14307 3.83513C3.18498 3.70278 3.10399 3.631 3.05395 3.57997ZM3.09121 2.46382C2.58437 2.60273 2.24921 3.35145 2.15636 3.99295C2.10408 4.35391 2.1147 4.75478 2.22814 5.08612C2.58669 6.13306 3.63954 5.53736 3.85595 4.06523C3.90981 3.69896 3.8967 3.30332 3.78169 2.96842C3.69024 2.70222 3.46611 2.36101 3.09121 2.46382Z" fill="#00A046"/>
<path fill-rule="evenodd" clip-rule="evenodd" d="M5.73565 2.62238C5.83846 2.58587 5.97472 2.48994 6.09155 2.43485C6.49135 2.24623 6.95338 2.12616 7.41615 2.15944C8.02646 2.20342 8.42593 2.48521 8.75735 2.94401C8.74233 2.6286 8.5304 2.10749 8.38792 1.89772C7.87901 1.14842 7.06191 1.42548 6.44695 1.89432C6.25751 2.0387 5.83938 2.41327 5.73565 2.62238Z" fill="#221F1F"/>
<path fill-rule="evenodd" clip-rule="evenodd" d="M4.63295 5.11735C5.00021 4.74992 5.63351 4.24457 6.3239 4.02825C6.67092 3.91954 7.16681 3.82959 7.49233 4.02153C7.94764 4.28996 7.82691 4.70702 7.78641 5.02607C8.20554 4.4258 8.4495 3.23829 7.32795 3.33828C6.59541 3.4035 5.87166 3.92602 5.35404 4.35336C5.28541 4.41012 5.22525 4.47194 5.16269 4.52712C5.01125 4.66088 4.73991 4.95911 4.63295 5.11735Z" fill="#221F1F"/>
<path fill-rule="evenodd" clip-rule="evenodd" d="M3.09125 2.46378C3.46615 2.36097 3.69027 2.70218 3.78172 2.96838C3.89673 3.30328 3.90984 3.69892 3.85598 4.06519C3.63957 5.53731 2.58673 6.13302 2.22818 5.08608C2.11474 4.75474 2.10412 4.35387 2.1564 3.99291C2.24925 3.35141 2.58441 2.60269 3.09125 2.46378ZM1.98355 4.3932C1.98355 4.89664 2.1842 5.75015 2.75526 5.75015C3.1051 5.75015 3.32989 5.53599 3.49303 5.33045C4.33079 4.27529 4.13421 2.27608 3.20725 2.30662C2.67876 2.32396 2.29796 2.99402 2.14661 3.43621C2.04554 3.73145 1.98355 4.05648 1.98355 4.3932Z" fill="#221F1F"/>
<path fill-rule="evenodd" clip-rule="evenodd" d="M3.05396 3.57995C3.10399 3.63098 3.18498 3.70276 3.14307 3.83511C3.10864 3.9439 3.03612 3.95253 2.9119 3.98149C2.83373 4.73568 3.39997 4.80638 3.62053 4.17964C3.88697 3.42263 3.31326 3.06242 3.05396 3.57995Z" fill="#221F1F"/>
</svg>
