<svg width="9" height="12" viewBox="0 0 9 12" fill="none" xmlns="http://www.w3.org/2000/svg">
<path fill-rule="evenodd" clip-rule="evenodd" d="M8.10257 0.435872C8 0.38459 7.79487 0.358948 7.74359 0.358948H7.17949C7.17949 0.384589 7.17949 0.38459 7.20513 0.435872H8.10257Z" fill="black"/>
<path fill-rule="evenodd" clip-rule="evenodd" d="M7.20512 0.487183C7.20512 0.794875 7.20512 1.4359 7.20512 1.53847C7.61538 1.53847 7.97435 1.53847 8.10256 1.53847C8.1282 1.53847 8.15384 1.46154 8.17948 1.4359V1.41026V0.564106C8.15384 0.538465 8.10256 0.512824 8.07692 0.512824C7.94871 0.487183 7.58974 0.487183 7.20512 0.487183ZM7.43589 0.92308L7.41025 0.743593L7.97435 0.66667L8.02564 0.846157L7.43589 0.92308Z" fill="black"/>
<path fill-rule="evenodd" clip-rule="evenodd" d="M8.20513 1.4359C8.20513 1.48718 8.17949 1.58974 8.07692 1.58974C7.71795 1.58974 6.61539 1.58974 6.20513 1.58974C6.10256 1.58974 6.07692 1.51282 6.07692 1.4359C5.79487 1.46154 5.61538 1.51282 5.61538 1.5641C5.61538 1.58974 5.64103 1.64103 5.76923 1.66667C5.74359 1.69231 5.76923 1.69231 5.76923 1.71795C5.76923 1.79487 6.05128 1.84615 6.4359 1.87179C6.4359 1.97436 6.38461 2.17949 6.38461 2.17949L6.28205 2.30769L6.20513 2.20513L6.10256 2.33333C6.10256 2.33333 5.69231 2.61538 5.61538 2.64103C5.58974 2.64103 5.48718 2.64103 5.46154 2.64103C5.46154 2.64103 5.38462 2.66667 5.33333 2.66667C5.25641 2.66667 5.17949 2.58974 5.17949 2.58974L5.05128 2.4359L4.79487 2.17949C4.79487 2.17949 4.69231 2.07692 4.66667 2C4.64103 1.94872 4.66667 1.87179 4.69231 1.79487C4.71795 1.71795 4.71795 1.71795 4.82051 1.66667C4.92308 1.61538 4.92308 1.66667 5.05128 1.69231C5.17949 1.71795 5.20513 1.64103 5.20513 1.64103C5.20513 1.64103 5.23077 1.61538 5.30769 1.46154C5.30769 1.46154 5.33333 1.41026 5.30769 1.35897C5.30769 1.30769 5.28205 1.23077 5.28205 1.17949C5.28205 1.17949 5.28205 1.12821 5.38462 1.07692C5.41026 1.07692 5.38462 1.05128 5.41026 1.02564C5.41026 1.02564 5.38461 0.999999 5.35897 0.999999C5.33333 0.974358 5.30769 0.923077 5.30769 0.923077C5.30769 0.923077 5.30769 0.846154 5.30769 0.769231C5.30769 0.692308 5.28205 0.692308 5.28205 0.589743C5.25641 0.487179 5.25641 0.435898 5.25641 0.435898L5.38462 0.333333L5.35897 0.230769C5.35897 0.230769 5.25641 0.153846 5.17949 0.128205C5.10256 0.102564 5 0.0512817 4.92308 0.0256406C4.84615 -3.91633e-07 4.61538 0 4.51282 0C4.41026 0.025641 4.25641 0.0769233 4.17949 0.179487C4.12821 0.230769 4.05128 0.307692 4 0.410256C3.92308 0.51282 3.92308 0.615384 3.92308 0.615384V0.871794C3.92308 0.871794 3.94872 1.05128 4.02564 1.1282C4.07692 1.20513 4.20513 1.30769 4.20513 1.30769C4.20513 1.30769 4.17949 1.33333 4.15385 1.33333C4.12821 1.33333 4.10256 1.33333 4.10256 1.33333L3.92308 1.20513L3.69231 1.10256L3.64103 1.15385L3.38462 1.20513L3.23077 1.25641L3.12821 1.30769C3.12821 1.30769 3.05128 1.30769 2.94872 1.33333C2.84615 1.35897 2.79487 1.30769 2.71795 1.30769C2.66667 1.33333 2.58974 1.33333 2.53846 1.30769C2.48718 1.28205 2.48718 1.28205 2.35897 1.28205C2.25641 1.25641 2.23077 1.25641 2.12821 1.28205C2.02564 1.30769 1.71795 1.38461 1.64103 1.38461C1.5641 1.35897 0.358975 1.76923 0.358975 1.76923L0.307692 1.92308C0.333333 2 0.051282 2.10256 0.051282 2.17949C0.051282 2.25641 0 2.41026 0 2.41026C0 2.41026 0.076923 2.84615 0.179487 2.89744C0.282051 2.94872 0.384615 2.8718 0.384615 2.8718C0.384615 2.8718 0.384616 2.89744 0.410257 2.89744C0.435898 2.92308 0.48718 2.92308 0.512821 2.89744C0.538462 2.87179 0.615385 2.84615 0.615385 2.79487C0.641026 2.69231 0.666667 2.61539 0.666667 2.61539L0.74359 2.4359L0.871795 2.5641C0.871795 2.5641 0.974359 2.28205 1.05128 2.23077C1.10256 2.17949 1.28205 2.15385 1.28205 2.15385L1.4359 2.12821L1.53846 2.07692H1.84615C1.84615 2.07692 2.12821 2.10256 2.20513 2.10256C2.28205 2.10256 2.61538 2.05128 2.61538 2.05128C2.64103 2.05128 2.69231 2.07692 2.74359 2.07692L2.76923 2.25641C2.76923 2.25641 2.74359 2.69231 2.71795 2.79487C2.69231 2.89744 2.61538 2.89744 2.61538 2.89744L2.17949 3.05128L2.30769 3.35897C2.30769 3.35897 2.23077 3.41026 2.15385 3.46154C2.07692 3.51282 1.92308 3.64103 1.82051 3.66667C1.71795 3.69231 1.71795 3.53846 1.66667 3.4359C1.64103 3.33333 1.46154 3.30769 1.46154 3.30769C1.46154 3.30769 1.35897 3.48718 1.28205 3.58974C1.17949 3.69231 1.07692 3.84615 0.974359 4.10256C0.871795 4.35897 0.717949 4.46154 0.717949 4.46154C0.717949 4.46154 1.10256 4.69231 1.35897 4.61539C1.61538 4.53846 1.84615 4.58974 1.97436 4.61539C2.10256 4.64103 2.28205 4.71795 2.28205 4.71795L2.17949 4.84615C2.17949 4.84615 2.02564 5 1.97436 5.10256C1.89744 5.20513 1.92308 5.15385 1.8718 5.28205C1.82051 5.41026 1.82051 5.46154 1.82051 5.58974C1.79487 5.71795 1.79487 5.74359 1.82051 5.82051C1.84615 5.89744 1.8718 6.02564 1.92308 6.1282C1.97436 6.23077 1.89744 6.25641 1.89744 6.33333C1.8718 6.41026 1.74359 6.97436 1.74359 7.10256C1.71795 7.20513 1.71795 7.28205 1.71795 7.35897C1.71795 7.4359 1.64103 7.53846 1.64103 7.53846C1.64103 7.53846 1.5641 7.61538 1.53846 7.66667C1.48718 7.71795 1.53846 7.74359 1.4359 7.84615C1.4359 7.84615 1.33333 7.92308 1.33333 8C1.30769 8.07692 1.33333 8.10256 1.28205 8.15385C1.23077 8.20513 1.17949 8.33333 1.17949 8.33333L0.923077 8.53846C0.923077 8.53846 0.923077 8.58974 0.897436 8.64103C0.871795 8.69231 0.871795 8.79487 0.846154 8.84615C0.820513 8.89744 0.820513 9.02564 0.794872 9.10256C0.769231 9.15385 0.717949 9.15385 0.717949 9.23077C0.717949 9.30769 0.692308 9.30769 0.666667 9.41026C0.641026 9.51282 0.641026 9.5641 0.641026 9.5641L0.512821 9.61538L0.333333 9.58974L0.384615 9.79487C0.384615 9.79487 0.410256 9.89744 0.435897 9.97436C0.461538 10.0513 0.615385 10.1026 0.615385 10.1026V10.2564L0.461539 10.359L0.307692 10.4615C0.307692 10.4615 0.0769232 10.7179 0.0256411 10.8462C0.0256411 10.8462 0.0512821 10.9487 0.128205 11.0769C0.230769 11.2051 0.230769 11.1795 0.25641 11.2308C0.282051 11.2821 0.333333 11.4359 0.333333 11.4359C0.333333 11.4359 0.410256 11.5385 0.435897 11.6154C0.461538 11.6667 0.538462 11.8462 0.589744 11.8974C0.641026 11.9487 0.820513 11.9744 0.820513 11.9744L1.02564 12L1.12821 11.9744C1.12821 11.9744 1.20513 11.9744 1.15385 11.8462C1.15385 11.8462 1.02564 11.7692 0.923077 11.6154C0.923077 11.6154 0.871795 11.359 0.897436 11.2051C0.923077 11.0513 0.897436 11.1282 0.897436 11.0769C0.897436 11.0256 0.871795 10.8974 0.871795 10.8974C0.871795 10.8974 0.871795 10.7949 0.897436 10.7179C0.923077 10.641 0.897436 10.5641 0.897436 10.5641L0.923077 10.4103C0.923077 10.4103 0.974359 10.4615 1.07692 10.4359C1.17949 10.4103 1.10256 10.4359 1.15385 10.3846L1.17949 10.2308L1.28205 10.0513L1.38462 9.84615C1.38462 9.84615 1.5641 9.53846 1.58974 9.46154C1.61538 9.38461 1.64103 9.28205 1.82051 8.94872C2 8.61538 3.10256 6.02564 3.10256 6.02564C3.10256 6.02564 3.41026 6.07692 3.82051 5.97436C4.25641 5.8718 4.64103 5.71795 4.64103 5.71795L4.48718 5.97436C4.48718 5.97436 4.41026 6.20513 4.38462 6.33333C4.46154 6.35897 4.4359 6.38462 4.4359 6.48718C4.4359 6.58974 4.33333 6.66667 4.33333 6.66667C4.33333 6.66667 4.28205 6.87179 4.28205 6.92308C4.25641 6.97436 4.23077 7.1282 4.23077 7.17949C4.23077 7.25641 4.17949 7.25641 4.1282 7.33333C4.10256 7.38462 4.07692 7.4359 4.15385 7.51282C4.15385 7.51282 4.15385 7.5641 4.10256 7.66667L4 7.69231L3.82051 7.66667C3.82051 7.66667 3.51282 7.82051 3.5641 7.89744C3.58974 7.97436 3.64103 8.05128 3.71795 8.12821C3.79487 8.23077 3.84615 8.30769 3.84615 8.30769L3.94872 8.35898C3.94872 8.35898 4 8.38461 4.05128 8.46154C4.07692 8.51282 4.20513 8.84615 4.28205 8.97436C4.35897 9.07692 4.64103 9.25641 4.71795 9.28205C4.79487 9.30769 4.82051 9.30769 4.8718 9.25641C4.92308 9.17949 4.92308 9.15385 4.92308 9.15385C4.92308 9.15385 4.82051 9.07692 4.74359 9.02564C4.66667 8.94872 4.69231 8.94872 4.64103 8.89744C4.61538 8.84615 4.61539 8.74359 4.61539 8.64103C4.61539 8.53846 4.61538 8.53846 4.64103 8.38462C4.66667 8.23077 4.64103 8.28205 4.66667 8.20513C4.69231 8.10256 4.71795 8 4.71795 8L4.74359 7.79487L4.8718 7.74359L5.02564 7.69231C5.02564 7.69231 5.79487 5.8718 5.97436 5.4359C6.15385 5 5.79487 4.69231 5.69231 4.61539C5.58974 4.5641 4.1282 4.58974 4.1282 4.58974C4.1282 4.58974 4.17949 4.53846 4.23077 4.46154C4.28205 4.38461 4.41026 4.20513 4.46154 4.15385C4.51282 4.10256 4.51282 3.92308 4.51282 3.92308L4.48718 3.66667L4.94872 3.30769L5 3.28205L5.02564 3.30769L5.4359 3.46154C5.4359 3.46154 5.69231 3.4359 5.76923 3.41026C5.8718 3.38462 6.17949 3.12821 6.17949 3.12821C6.17949 3.12821 6.79487 2.74359 6.74359 2.66667L6.84615 2.61539L6.79487 2.53846L6.8718 2.51282L6.92308 2.41026L6.97436 2.25641L7.07692 2.12821L7.17949 1.97436L7.23077 1.92308C7.94872 1.92308 8.53846 1.84615 8.53846 1.74359C8.53846 1.71795 8.5641 1.71795 8.53846 1.69231C8.66667 1.66667 8.66667 1.64103 8.69231 1.61538C8.61538 1.51282 8.46154 1.48718 8.20513 1.4359ZM6.64103 1.94872C6.64103 1.94872 6.64103 1.92308 6.61538 1.84615C6.64103 1.84615 6.69231 1.84615 6.74359 1.84615C6.71795 1.97436 6.64103 1.94872 6.64103 1.94872Z" fill="black"/>
<path fill-rule="evenodd" clip-rule="evenodd" d="M6.17948 1.53847C6.35897 1.53847 6.74359 1.53847 7.1282 1.53847C7.1282 1.4359 7.1282 0.794875 7.1282 0.487183C6.76923 0.487183 6.38461 0.487183 6.15384 0.487183C6.1282 0.487183 6.10256 0.512824 6.07692 0.512824V1.38462C6.07692 1.4359 6.10256 1.53847 6.17948 1.53847Z" fill="black"/>
<path fill-rule="evenodd" clip-rule="evenodd" d="M7.1282 0.358948H6.5641C6.51281 0.358948 6.30769 0.384589 6.17948 0.41023H7.1282C7.1282 0.384589 7.1282 0.384589 7.1282 0.358948Z" fill="black"/>
<path fill-rule="evenodd" clip-rule="evenodd" d="M4.64103 2.10259C4.64103 2.10259 4.69231 2.05131 4.64103 1.97438C4.61539 1.94874 4.58975 1.89746 4.58975 1.89746C4.51282 1.9231 4.48718 2.05131 4.48718 2.05131L4.51282 2.12823L4.4359 2.2308C4.4359 2.2308 4.33334 3.17951 3.69231 3.20515C3.10257 3.20515 2.56411 2.82054 2.56411 2.82054C2.56411 2.82054 2.35898 2.82054 2.05129 2.89746C1.94872 2.9231 1.92308 2.97438 1.92308 2.97438L2.17949 3.33336C2.17949 3.33336 2.89744 3.74362 3.53846 3.64105C4.23077 3.53849 4.46154 2.97438 4.53847 2.74362C4.64103 2.53849 4.64103 2.25644 4.64103 2.25644C4.61539 2.23079 4.61539 2.20515 4.61539 2.17951C4.58975 2.15387 4.64103 2.10259 4.64103 2.10259Z" fill="#FDDD00"/>
</svg>
