<svg width="11" height="12" viewBox="0 0 11 12" fill="none" xmlns="http://www.w3.org/2000/svg">
<path fill-rule="evenodd" clip-rule="evenodd" d="M0.261978 3.57912L0.305613 8.53179L1.41833 9.90633L4.7566 11.6736L8.85841 9.66632L9.70932 7.63724L9.62205 1.06992L6.52386 0.982642L3.29481 1.50628L0.349379 3.20807L0.261978 3.57912Z" fill="#301506"/>
<path d="M5.04152 9.83942e-05C3.09706 9.83942e-05 1.40094 0.376555 0 1.11894V7.05408C0 8.30294 0.469242 9.34725 1.35676 10.0748C2.18081 10.7507 4.72932 11.8647 5.04162 12C5.33779 11.8711 7.9165 10.7399 8.72747 10.0748C9.61449 9.34765 10.0839 8.30301 10.0839 7.05408V1.11894C8.68272 0.376456 6.9866 0 5.04135 0L5.04152 9.83942e-05ZM7.92073 1.1493C8.50059 1.15688 9.06996 1.19271 9.62034 1.24385V7.05403C9.62034 8.17057 9.21519 9.07249 8.43347 9.71638C7.7351 10.2915 5.62923 11.235 5.04162 11.494C4.44614 11.2315 2.33499 10.2761 1.64919 9.71662C0.872088 9.08375 0.463043 8.16042 0.463043 7.05427V3.65927C2.6962 1.6113 5.40794 1.11657 7.92054 1.14944L7.92073 1.1493ZM5.17298 3.85475C4.69455 3.85475 4.30852 3.96169 3.99071 4.16684V9.88334H4.86819V8.03652C4.95576 8.06235 5.08287 8.08649 5.26293 8.08649C6.23628 8.08649 6.79573 7.20905 6.79573 5.92792C6.79573 4.64929 6.21968 3.85475 5.173 3.85475L5.17298 3.85475ZM8.17125 3.85475C7.59416 3.87148 6.99067 4.28952 6.99435 4.99819C6.99583 5.46481 7.12519 5.81378 7.84837 6.23811C8.23432 6.46466 8.38982 6.61394 8.39647 6.88921C8.40385 7.19521 8.19242 7.37972 7.87067 7.37848C7.59074 7.37627 7.2561 7.22091 7.03202 7.02141V7.82893C7.30677 7.99276 7.64962 8.10105 7.99597 8.10105C8.86282 8.10105 9.2499 7.48872 9.26663 6.92762C9.28311 6.41621 9.14179 6.02924 8.40875 5.59853C8.08159 5.40666 7.82323 5.28056 7.83184 4.96127C7.84045 4.6496 8.0992 4.54011 8.34765 4.54233C8.65414 4.54503 8.95063 4.71478 9.13364 4.90247V4.13992C8.97941 4.02111 8.65287 3.83997 8.17123 3.85473L8.17125 3.85475ZM0.91113 3.94354V6.70093C0.91113 7.63052 1.35085 8.10112 2.21869 8.10112C2.75569 8.10112 3.20545 7.97684 3.54048 7.74905V3.94356H2.66493V7.2498C2.56949 7.31523 2.42792 7.35703 2.24982 7.35703C1.84788 7.35703 1.78782 6.98845 1.78782 6.73977V3.9436H0.911111L0.91113 3.94354ZM5.17888 4.5612C5.68781 4.5612 5.89877 4.96752 5.89877 5.95025C5.89877 6.9091 5.65751 7.37236 5.15275 7.37236C5.03394 7.37236 4.93067 7.34293 4.86794 7.31932V4.62469C4.93903 4.58927 5.05982 4.56127 5.17888 4.56127V4.5612Z" fill="#FAB80A"/>
</svg>
