<svg width="12" height="13" viewBox="0 0 12 13" fill="none" xmlns="http://www.w3.org/2000/svg">
<path fill-rule="evenodd" clip-rule="evenodd" d="M11.0066 2.82464C10.5654 2.11876 10.036 1.55993 9.38893 1.08934C8.77128 0.648167 8.03599 0.324637 7.24187 0.148167C5.91834 -0.145951 4.62422 0.00110791 3.38893 0.559931C2.71246 0.854049 2.09481 1.29523 1.5654 1.82464C0.918342 2.50111 0.418342 3.26581 0.153636 4.11876V4.14817C0.153636 4.17758 0.124224 4.20699 0.124224 4.2364C-0.169893 5.20699 0.0948124 5.76581 0.535989 5.29523C0.565401 5.26581 0.565401 5.26581 0.594812 5.2364C0.594812 5.2364 0.594812 5.20699 0.624224 5.20699C1.12422 4.55993 1.94775 4.03052 1.94775 4.03052C2.15364 3.88346 2.35952 3.76581 2.59481 3.61876C2.85952 3.4717 3.12422 3.32464 3.35952 3.2364C3.35952 3.2364 3.59481 3.11876 3.65364 2.82464V2.79523C3.68305 2.53052 3.97717 1.79523 4.80069 1.7364C5.0654 1.70699 5.3007 1.7364 5.53599 1.85405C5.91834 2.03052 6.21246 2.41287 6.27128 2.85405C6.33011 3.20699 6.24187 3.53052 6.0654 3.79523C6.0654 3.82464 6.03599 3.82464 6.03599 3.85405C5.88893 4.05993 5.68305 4.20699 5.41834 4.29523C5.27128 4.35405 5.12422 4.38346 4.97717 4.38346C4.88893 4.38346 4.80069 4.38346 4.68305 4.35405C4.5654 4.32464 4.47717 4.29523 4.38893 4.2364C4.24187 4.17758 4.09481 4.08934 4.0654 4.03052C4.03599 4.00111 3.97717 3.9717 3.94775 3.9717C3.85952 3.9717 3.80069 3.9717 3.74187 4.00111C3.71246 4.00111 3.68305 4.03052 3.68305 4.03052C3.47717 4.17758 3.30069 4.35405 3.12422 4.53052C2.59481 5.05993 2.21246 5.61876 2.00658 5.88346C1.91834 6.03052 1.83011 6.20699 1.74187 6.35405C1.65364 6.50111 1.59481 6.64817 1.50658 6.79523C1.38893 7.03052 1.30069 7.29523 1.21246 7.55993V7.58934L1.18305 7.64817L1.15364 7.70699C0.594812 9.61876 1.59481 10.707 2.44775 9.55993C2.50658 9.50111 2.53599 9.41287 2.59481 9.35405C3.47717 7.82464 5.27128 6.7364 5.27128 6.7364C5.38893 6.67758 5.50658 6.58934 5.59481 6.53052H5.62422C5.91834 6.35405 6.24187 6.20699 6.5654 6.05993C6.85952 5.94228 7.15364 5.79523 7.41834 5.7364C7.41834 5.7364 7.71246 5.64817 7.8007 5.29523C7.85952 5.03052 8.03599 4.64817 8.47717 4.44228C8.5654 4.38346 8.68305 4.35405 8.8007 4.32464C8.91834 4.29523 9.03599 4.29523 9.15364 4.29523C9.24187 4.29523 9.3007 4.29523 9.33011 4.32464C9.88893 4.44228 10.3301 4.88346 10.3889 5.4717C10.4772 6.20699 9.97717 6.85405 9.24187 6.94228C8.88893 7.00111 8.5654 6.91287 8.27128 6.70699C7.94775 6.58934 7.71246 6.64817 7.62422 6.70699C7.35952 6.85405 7.09481 7.03052 6.85952 7.20699C6.38893 7.55993 6.03599 7.91287 5.88893 8.05993C5.5654 8.38346 5.30069 8.7364 5.03599 9.11876L5.00658 9.17758V9.20699C4.74187 9.61876 4.47717 10.1188 4.27128 10.7364C4.24187 10.7952 4.24187 10.8246 4.21246 10.8835C3.97717 11.6776 4.47717 12.0011 5.09481 12.1188C5.09481 12.1188 5.5654 12.207 6.24187 12.1482C6.27128 12.1482 6.33011 12.1482 6.35952 12.1482C6.53599 12.1188 6.68305 12.1188 6.85952 12.0893C8.00658 11.8835 9.03599 11.4129 9.88893 10.6188C10.9772 9.64817 11.6536 8.41287 11.8595 6.94228C12.0948 5.44228 11.8007 4.08934 11.0066 2.82464Z" fill="#FFDE78" fill-opacity="0.5"/>
</svg>
