<svg width="12" height="12" viewBox="0 0 12 12" fill="none" xmlns="http://www.w3.org/2000/svg">
<path d="M0 0V6.04724L1.65354 4.8189L3.23622 6.04724V2.88189H4.46457L5.55118 1.51181L4.46457 0H0Z" fill="#8EB63F"/>
<path d="M5.00787 0L6.11811 1.51181L5.10236 2.88189C6.94488 3.2126 7.74803 3.9685 7.98425 5.69291L9.56693 6.92126L11.3386 5.69291C11.3386 2.66929 9.23622 0.212598 5.00787 0Z" fill="#FDCD0B"/>
<path d="M7.98425 6.33071L9.56693 7.53543L11.3386 6.33071C11.3386 7.32283 10.6299 11.4094 5.55118 11.9291L4.51181 10.5118L5.69291 9C6.92126 8.69291 7.91339 7.84252 7.98425 6.33071Z" fill="#A7A8AB"/>
<path d="M1.65354 5.38583L0 6.66142V12H4.96063L3.87402 10.5354L4.96063 9.11811H3.25984V6.66142L1.65354 5.38583Z" fill="#3F5DA7"/>
</svg>
