<svg width="12" height="12" viewBox="0 0 12 12" fill="none" xmlns="http://www.w3.org/2000/svg">
<path d="M12 0.000732422H0V12.0007H12V0.000732422Z" fill="#FF3300"/>
<path fill-rule="evenodd" clip-rule="evenodd" d="M5.54503 6.01603L4.03111 4.935L2.52462 6.02665L3.08492 4.25266L1.58119 3.15723L3.44158 3.14195L4.01861 1.37335L4.60799 3.13789L6.46838 3.14021L4.97236 4.24597L5.54503 6.01603Z" fill="#FFFF00"/>
<path fill-rule="evenodd" clip-rule="evenodd" d="M9.1602 2.18952L8.85934 1.77007L8.36594 1.92194L8.6719 1.50615L8.375 1.08383L8.865 1.24635L9.17487 0.833478L9.17173 1.34969L9.66015 1.51683L9.16824 1.67335L9.1602 2.18952Z" fill="#FFFF00"/>
<path fill-rule="evenodd" clip-rule="evenodd" d="M7.92783 9.8398L7.58462 9.45423L7.10988 9.65704L7.37052 9.21145L7.03094 8.82261L7.53529 8.93281L7.80013 8.48971L7.85116 9.0034L8.35443 9.11837L7.88166 9.32563L7.92783 9.8398Z" fill="#FFFF00"/>
<path fill-rule="evenodd" clip-rule="evenodd" d="M10.3425 4.89L10.1754 4.40161L9.65915 4.40478L10.072 4.09486L9.90946 3.60488L10.3318 3.90177L10.7476 3.59576L10.5957 4.08915L11.0152 4.39002L10.4991 4.39806L10.3425 4.89Z" fill="#FFFF00"/>
<path fill-rule="evenodd" clip-rule="evenodd" d="M10.2708 7.37912L9.84863 7.08212L9.43274 7.38798L9.58474 6.89464L9.16535 6.59362L9.68154 6.58574L9.83819 6.09386L10.0052 6.58233L10.5214 6.57934L10.1085 6.88909L10.2708 7.37912Z" fill="#FFFF00"/>
</svg>
