<svg width="8" height="12" viewBox="0 0 8 12" fill="none" xmlns="http://www.w3.org/2000/svg">
<path d="M5.53258 1.00876C6.18074 0.368505 7.08316 0.00567371 7.99264 0.000732422C8.00874 2.81345 7.99504 5.62731 7.99942 8.44031C8.01297 9.46062 7.5564 10.4768 6.77835 11.1381C6.147 11.6928 5.30684 12.0076 4.46626 11.9982C4.46781 9.1599 4.46569 6.32177 4.46738 3.48363C4.476 2.56046 4.86848 1.64971 5.53258 1.00876Z" fill="#3E3F59"/>
<path d="M1.54765 8.48266C2.28672 8.37889 3.05432 8.80356 3.36491 9.48066C3.71659 10.1953 3.50016 11.1258 2.87149 11.6142C2.39219 12.0027 1.70535 12.1103 1.13117 11.8824C0.416376 11.6192 -0.0667409 10.8525 0.00751962 10.0937C0.0582031 9.28272 0.738689 8.56821 1.54765 8.48266Z" fill="#F13B36"/>
</svg>
