<svg width="12" height="13" viewBox="0 0 12 13" fill="none" xmlns="http://www.w3.org/2000/svg">
    <path d="M6.0849 4.71303C5.65074 4.71303 5.30342 4.33599 5.30342 3.86468V0.848345C5.30342 0.377042 5.65074 0 6.0849 0C6.51905 0 6.86637 0.377042 6.86637 0.848345V3.86468C6.86637 4.33599 6.50168 4.71303 6.0849 4.71303Z" fill="#229FFF"/>
    <path d="M4.22667 5.97625C4.12247 6.4287 3.68832 6.69263 3.27153 6.57952L0.579782 5.80658C0.162995 5.69347 -0.0801307 5.22216 0.0240661 4.76971C0.128263 4.31726 0.562416 4.05333 0.979203 4.16645L3.67095 4.93938C4.08774 5.0525 4.33087 5.5238 4.22667 5.97625Z" fill="#229FFF"/>
    <path d="M7.76942 5.93829C7.87362 6.39074 8.30777 6.65467 8.72456 6.54155L11.4163 5.76862C11.8331 5.6555 12.0762 5.1842 11.972 4.73175C11.8678 4.2793 11.4337 4.01537 11.0169 4.12848L8.32514 4.90142C7.90835 5.01453 7.64786 5.48583 7.76942 5.93829Z" fill="#229FFF"/>
    <path d="M2.29908 12.1029C1.95176 11.8201 1.89966 11.2922 2.16015 10.9152L3.86203 8.53982C4.12253 8.16278 4.60878 8.10622 4.9561 8.389C5.30342 8.67178 5.35552 9.19964 5.09503 9.57669L3.39315 11.9521C3.13266 12.3291 2.6464 12.3857 2.29908 12.1029Z" fill="#229FFF"/>
    <path d="M9.81852 12.0841C10.1658 11.8013 10.2179 11.2735 9.95745 10.8964L8.25557 8.50222C7.99507 8.12518 7.50882 8.06862 7.1615 8.35141C6.81418 8.63419 6.76208 9.16205 7.02257 9.53909L8.72445 11.9145C8.98494 12.3103 9.4712 12.3669 9.81852 12.0841Z" fill="#229FFF"/>
</svg>
